# xmcd CD database file
#
# Track frame offsets:
#	150
#	28329
#	55475
#	80328
#	112511
#	132546
#
# Disc length: 2241 seconds
#
# Revision: 0
# Processed by: cddbd v1.5PL3 Copyright (c) Steve Scherf et al.
# Submitted via: CDex 1.50
#
DISCID=4a08bf06
DTITLE=Eddie Harris - The Tender Storm
DYEAR=2002
DGENRE=Jazz
TTITLE0=When A Man Loves A Woman
TTITLE1=My Funny Valentine
TTITLE2=The Tender Storm
TTITLE3=On A Clear Day (You Can See Forever)
TTITLE4=A Nightengale Sang In Berkely Square
TTITLE5=If Ever I Would Leave You
EXTD=YEAR: 2002
EXTT0=
EXTT1=
EXTT2=
EXTT3=
EXTT4=
EXTT5=
PLAYORDER=
